<?xml version="1.0" encoding="utf-8"?>
<!-- Generator: Adobe Illustrator 22.0.1, SVG Export Plug-In . SVG Version: 6.00 Build 0)  -->
<svg version="1.1" id="Layer_1" xmlns="http://www.w3.org/2000/svg" xmlns:xlink="http://www.w3.org/1999/xlink" x="0px" y="0px"
	 viewBox="0 0 512 512" style="enable-background:new 0 0 512 512;" xml:space="preserve">
<path d="M432.6,61.5h-14.1v-30c0-19.1-14.9-34-33.9-34h-320c-19.3,0-35.1,15.3-35.1,34v96c0,19,16.1,35,35.1,35h320
	c18.7,0,33.9-15.7,33.9-35v-29h14.1c7.4,0,12.9,5.6,12.9,13v96c0,7.7-5.8,14-12.9,14h-176c-28.2,0-51.1,22.4-51.1,50v30h-28.9
	c-10.5,0-19.1,8.1-19.1,18v176c0,10.1,8.9,19,19.1,19h96c9.9,0,17.9-8.5,17.9-19v-176c0-10.3-7.7-18-17.9-18h-30.1v-30
	c0-7.2,6.3-13,14.1-13h176c27.5,0,49.9-22.9,49.9-51v-96C482.5,83.5,460.6,61.5,432.6,61.5z M382.1,125.5H66.5v-91h315.6
	L382.1,125.5z M194.5,477.5v-139h59v139H194.5z"/>
</svg>
