<?xml version="1.0" encoding="utf-8"?>
<!-- Generator: Adobe Illustrator 22.0.1, SVG Export Plug-In . SVG Version: 6.00 Build 0)  -->
<svg version="1.1" id="Capa_1" xmlns="http://www.w3.org/2000/svg" xmlns:xlink="http://www.w3.org/1999/xlink" x="0px" y="0px"
	 viewBox="0 0 512 512" style="enable-background:new 0 0 512 512;" xml:space="preserve">
<style type="text/css">
	.st0{fill:#121212;}
	.st1{fill:#FFD800;}
</style>
<path class="st0" d="M370.8,47.7C339.9,16.9,299.2,0,256,0c-0.3,0-0.7,0-1,0c-43.3,0.3-84,17.3-114.6,48.1
	C109.8,78.8,93,119.7,93,163c0,40.1,14.7,78.6,41.3,108.4c37.7,42.3,65.6,90,83,141.6l31.4,93.6c1.1,3.1,4,5.3,7.3,5.3
	s6.3-2.1,7.3-5.3l31.4-93.6c17.3-51.5,45.2-99.2,83.1-141.7C404.4,241.5,419,203.1,419,163C419,119.6,401.9,78.6,370.8,47.7
	L370.8,47.7z"/>
<path class="st1" d="M332.8,144.3l-72.9-60.7c-2.3-1.9-5.5-1.9-7.8,0l-72.9,60.7c-2,1.6-2.7,4.3-1.8,6.7c0.9,2.4,3.2,4,5.7,4h18.2
	v54.7c0,3.4,2.7,6.1,6.1,6.1h36.1c3.3,0,6.1-2.7,6.1-6l0.3-36.5h12.2v36.4c0,3.4,2.7,6.1,6.1,6.1h36.4c3.4,0,6.1-2.7,6.1-6.1v-54.7
	h18.2c2.6,0,4.8-1.6,5.7-4C335.5,148.7,334.7,146,332.8,144.3z"/>
</svg>
