<svg height="480pt" viewBox="0 0 480.04985 480" width="480pt" xmlns="http://www.w3.org/2000/svg"><path d="m200.027344 424.023438h16v16h-16zm0 0"/><path d="m264.027344 424.023438h16v16h-16zm0 0"/><path d="m96.027344 400.023438h16v32h-16zm0 0"/><path d="m368.027344 400.023438h16v32h-16zm0 0"/><path d="m480.027344 312.023438c.003906-7.148438-1.933594-14.164063-5.601563-20.300782-1.398437-2.210937-1.429687-5.015625-.085937-7.257812 6.570312-10.917969 7.527344-24.320313 2.578125-36.0625-4.953125-11.738282-15.214844-20.410156-27.617188-23.328125-11.582031-2.695313-23.761719-.128907-33.273437 7.007812v-24.058593h16v-16h-16v-80h16v-16h-16v-80h16v-16.0000005h-384v16.0000005h16v80h-16v16h16v80h-16v16h16v23.890624c-4.382813-3.292968-9.410156-5.625-14.75-6.839843-11.976563-2.796875-24.574219.035156-34.203125 7.6875-15.621094 12.390625-19.660157 34.433593-9.445313 51.558593 1.394532 2.277344 1.394532 5.140626 0 7.417969-7.496094 12.488281-7.496094 28.09375 0 40.582031 1.398438 2.210938 1.429688 5.019532.085938 7.265626-6.574219 10.914062-7.535156 24.316406-2.585938 36.058593 4.949219 11.742188 15.214844 20.414063 27.617188 23.332031.417968.097657.839844.128907 1.257812.214844v8.832032h-23.976562c-2.511719.003906-4.875 1.183593-6.386719 3.1875-1.507813 2.003906-1.992187 4.601562-1.300781 7.015624l13.078125 45.796876h-13.3906252v16h480.0000002v-16h-13.390625l13.078125-45.796876c.691406-2.414062.207031-5.011718-1.300782-7.015624-1.511718-2.003907-3.875-3.183594-6.386718-3.1875h-24v-8.902344c12.679687-2.519532 23.34375-11.042969 28.59375-22.851563 5.25-11.8125 4.433594-25.441406-2.195313-36.539062-1.394531-2.277344-1.394531-5.144531 0-7.417969 3.667969-6.132812 5.601563-13.144531 5.601563-20.289062zm-430.03125 152h-19.9375l-11.421875-40h42.78125zm14.03125-56h-16v-8.902344c5.804687-1.175782 11.269531-3.636719 16-7.199219zm0-144.238282c.054687 4.367188-1.121094 8.664063-3.398438 12.390625-4.402344 7.320313-4.382812 16.476563.054688 23.777344 4.453125 7.425781 4.453125 16.703125 0 24.128906-4.410156 7.347657-4.410156 16.53125 0 23.878907 2.183594 3.644531 3.339844 7.8125 3.34375 12.0625.011718 7.308593-3.316406 14.21875-9.03125 18.769531-2.097656 1.621093-4.453125 2.878906-6.96875 3.71875v-118.488281h-16v118.648437c-7.546875-2.644531-13.273438-8.882813-15.265625-16.632813-1.605469-6.164062-.644531-12.71875 2.664062-18.167968 4.402344-7.316406 4.382813-16.476563-.054687-23.773438-4.453125-7.425781-4.453125-16.703125 0-24.128906 4.410156-7.347656 4.410156-16.53125 0-23.878906-2.183594-3.644532-3.339844-7.816406-3.34375-12.066406-.011719-7.304688 3.316406-14.21875 9.03125-18.765626 4.230468-3.402343 9.496094-5.25 14.921875-5.234374 1.9375.003906 3.871093.222656 5.757812.65625 8.613281 2.078124 15.367188 8.75 17.554688 17.335937.457031 1.867187.703125 3.78125.734375 5.707031zm16-215.761718h32v48h-32zm0 96h32v48h-32zm0 96h32v48h-32zm152 224h-56v-64h56zm72 0h-56v-64h56zm32 0h-16v-72c0-4.417969-3.582032-8-8-8h-144c-4.417969 0-8 3.582031-8 8v72h-16v-96h192zm64 0h-48v-104c0-4.417969-3.582032-8-8-8h-208c-4.417969 0-8 3.582031-8 8v104h-48v-128h320zm0-144h-320v-16h320zm-272-32v-48h32v48zm48 0v-48h32v48zm48 0v-48h32v48zm48 0v-48h32v48zm48 0v-48h32v48zm80 0h-32v-48h32zm0-64h-320v-16h320zm-272-32v-48h32v48zm48 0v-48h32v48zm48 0v-48h32v48zm48 0v-48h32v48zm48 0v-48h32v48zm80 0h-32v-48h32zm0-64h-320v-16h320zm-272-32v-48h32v48zm48 0v-48h32v48zm48 0v-48h32v48zm48 0v-48h32v48zm48 0v-48h32v48zm80 0h-32v-48h32zm0-64h-320v-16h320zm16 360.113281c4.378906 3.292969 9.402344 5.621093 14.742187 6.839843.417969.097657.800781.128907 1.257813.214844v8.832032h-16zm45.390625 31.886719-11.421875 40h-19.9375l-11.421875-40zm-.734375-124.070313c4.453125 7.425781 4.453125 16.703125 0 24.128906-4.410156 7.347657-4.410156 16.53125 0 23.878907 2.183594 3.644531 3.339844 7.8125 3.34375 12.0625.011718 7.308593-3.316406 14.21875-9.03125 18.769531-2.097656 1.621093-4.453125 2.878906-6.96875 3.71875v-118.488281h-16v118.648437c-7.546875-2.644531-13.273438-8.882813-15.265625-16.632813-.457031-1.859374-.703125-3.769531-.734375-5.6875v-.101562c-.046875-4.363281 1.132812-8.652344 3.398437-12.378906 4.402344-7.316406 4.382813-16.476563-.054687-23.773438-4.453125-7.425781-4.453125-16.703125 0-24.128906 4.410156-7.347656 4.410156-16.53125 0-23.878906-2.183594-3.644532-3.339844-7.816406-3.34375-12.066406-.011719-7.304688 3.316406-14.21875 9.03125-18.765626 4.230468-3.402343 9.496094-5.25 14.921875-5.234374 1.9375.003906 3.871093.222656 5.757812.65625 8.613281 2.078124 15.367188 8.75 17.554688 17.335937 1.605469 6.167969.644531 12.722656-2.664063 18.167969-4.402344 7.320312-4.378906 16.472656.054688 23.769531zm0 0"/></svg>