<?xml version="1.0" encoding="utf-8"?>
<!-- Svg Vector Icons : http://www.onlinewebfonts.com/icon -->
<!DOCTYPE svg PUBLIC "-//W3C//DTD SVG 1.1//EN" "http://www.w3.org/Graphics/SVG/1.1/DTD/svg11.dtd">
<svg version="1.1" xmlns="http://www.w3.org/2000/svg" xmlns:xlink="http://www.w3.org/1999/xlink" x="0px" y="0px" viewBox="0 0 1000 1000" enable-background="new 0 0 1000 1000" xml:space="preserve">
<metadata> Svg Vector Icons : http://www.onlinewebfonts.com/icon </metadata>
<g><g transform="translate(0.000000,511.000000) scale(0.100000,-0.100000)"><path d="M397.1,4867.1c-2-77.6-2-800.3-2-1602.7s0-1541.5,2-1643.5v-183.8h232.7h230.7l322.6-336.9c175.6-185.8,328.7-336.9,336.9-336.9c10.2,0,42.9,32.7,73.5,71.5l53.1,71.5l-349.1,361.4L948.3,1627v273.6v271.5l557.4,4.1l555.3,6.1l6.1,198l6.1,200.1l-557.4,4.1l-557.4,6.1l-6.1,914.7l-4.1,912.6H2500h1551.7v-918.8v-918.7h-600.2h-600.2l-8.2-177.6c-4.1-100-4.1-191.9,0-204.2c6.1-20.4,147-26.5,608.4-26.5h600.2v-551.3v-551.3h204.2H4460l2,169.5c0,91.9,0,338.9,0,551.3l-2,381.8h1071.9h1071.9v204.2v204.2l-1065.7,4.1l-1067.8,6.1l-4.1,914.7l-2,912.6h2284.6h2284.6V1712.7V-992.5l-2280.5,4.1l-2282.6,6.1l-4.1,398.1c-2,218.5-4.1,469.6-4.1,557.4l-2,159.3l-198-6.1l-200.1-6.1V-819v-939.2l198-6.1l200.1-6.1v138.8c0,75.5,6.1,159.2,12.3,185.8l12.3,44.9h2274.4h2274.4l-4.1-1402.6l-6.1-1404.7H6746.6H4470.2l-4.1,581.9c-2,320.5-4.1,657.4-4.1,751.3l-2,167.4h-804.4h-804.4l-8.2-187.8c-4.1-104.1-6.1-196-2-206.2c6.1-8.2,279.7-14.3,610.5-14.3h600.2V-3665v-549.2l-1545.5,2l-1547.6,4.1l-6.1,545.1l-4.1,547.2l555.3,4.1l557.4,6.1l6.1,200.1l6.1,198h-563.5H948.3v1500.6V293.8H672.7c-230.7,0-275.6-4.1-275.6-30.6c-2-16.3-2-1147.4-2-2511.2s0-2494.9,2-2511.2c0-26.5,524.7-30.6,4604-30.6h4604V110v4900H5001h-4604V4867.1z"/></g></g>
</svg>