<svg id="Layer_5" enable-background="new 0 0 64 64" height="512" viewBox="0 0 64 64" width="512" xmlns="http://www.w3.org/2000/svg"><path d="m61 52.184v-44.184c0-1.103-.897-2-2-2h-2c-1.103 0-2 .897-2 2v4h-12v-4c0-1.103-.897-2-2-2h-2c-1.103 0-2 .897-2 2h-36v18h2v26.184c-1.161.414-2 1.514-2 2.816v3h62v-3c0-1.302-.839-2.402-2-2.816zm-2-44.184v44h-2v-44zm-4 14h-12v-4h12zm0 2v2h-12v-2zm0 4v4h-12v-4zm0 6v2h-12v-2zm0 4v4h-12v-4zm0 6v2h-12v-2zm0 4v4h-12v-4zm0-34v2h-12v-2zm-14-6v44h-2v-44zm-38 16v-2h34v2zm34-4h-4v-4h4zm-6 0h-4v-4h4zm-16 0v-4h4v4zm6-4h4v4h-4zm6-2v-4h4v4zm-2 0h-4v-4h4zm-6 0h-4v-4h4zm-6 0h-4v-4h4zm0 2v4h-4v-4zm-6 4h-4v-4h4zm30-6h-4v-4h4zm-30-4v4h-4v-4zm30 16v26h-2v-19c0-1.654-1.346-3-3-3h-10c-1.654 0-3 1.346-3 3v19h-14v-26zm-4 13.184c-.314-.112-.648-.184-1-.184-1.654 0-3 1.346-3 3s1.346 3 3 3c.352 0 .686-.072 1-.184v7.184h-12v-19c0-.552.448-1 1-1h10c.552 0 1 .448 1 1zm0 2.816c0 .552-.448 1-1 1s-1-.448-1-1 .448-1 1-1 1 .448 1 1zm28 14h-58v-1c0-.552.448-1 1-1h56c.552 0 1 .448 1 1z"/><path d="m17 30h-10v8h10zm-2 6h-6v-4h6z"/><path d="m17 48v-8h-10v8zm-8-6h6v4h-6z"/><path d="m23 36v6h2v-6h2v-2h-2c-1.103 0-2 .897-2 2z"/><path d="m23 44h2v2h-2z"/></svg>